<mxfile host="app.diagrams.net" modified="2024-04-20T23:45:40.887Z" agent="Mozilla/5.0 (Windows NT 10.0; Win64; x64) AppleWebKit/537.36 (KHTML, like Gecko) Chrome/124.0.0.0 Safari/537.36" version="24.2.7" etag="dJIAJoGLzXOq4R0E4P0o" type="github">
  <diagram name="PÃ¡gina-1" id="73dXkLLCzqQTTENqm8xE">
    <mxGraphModel>
      <root>
        <mxCell id="0" />
        <mxCell id="1" parent="0" />
      </root>
    </mxGraphModel>
  </diagram>
</mxfile>
